<svg width="326" height="72" viewBox="0 0 326 72" fill="none" xmlns="http://www.w3.org/2000/svg">
<path d="M142.822 72C137.893 72 133.316 71.1724 129.091 69.5172C124.866 67.7984 121.185 65.4111 118.049 62.3554C114.912 59.2997 112.48 55.7347 110.752 51.6605C109.023 47.5225 108.159 43.0345 108.159 38.1963C108.159 33.3581 109.023 28.9019 110.752 24.8276C112.48 20.6897 114.912 17.0928 118.049 14.0371C121.185 10.9814 124.866 8.62599 129.091 6.97082C133.316 5.25198 137.893 4.39257 142.822 4.39257C147.366 4.39257 151.655 5.12466 155.688 6.58885C159.721 8.05304 163.209 10.2812 166.154 13.2732L164.138 15.374C161.129 12.5093 157.832 10.4721 154.248 9.26259C150.727 7.98938 146.95 7.35278 142.918 7.35278C138.437 7.35278 134.276 8.14854 130.435 9.74005C126.594 11.2679 123.234 13.4324 120.353 16.2334C117.537 19.0345 115.328 22.313 113.728 26.069C112.192 29.7613 111.424 33.8037 111.424 38.1963C111.424 42.5889 112.192 46.6631 113.728 50.4191C115.328 54.1114 117.537 57.3581 120.353 60.1592C123.234 62.9602 126.594 65.1565 130.435 66.748C134.276 68.2759 138.437 69.0398 142.918 69.0398C146.95 69.0398 150.727 68.435 154.248 67.2255C157.832 65.9523 161.129 63.8515 164.138 60.9231L166.154 63.0239C163.209 66.0159 159.721 68.2759 155.688 69.8037C151.655 71.2679 147.366 72 142.822 72Z" fill="black"/>
<path d="M181.794 71.618V22.0584H184.867V35.7135L184.579 34.8541C185.923 30.7162 188.26 27.5013 191.588 25.2095C194.981 22.8541 199.206 21.6764 204.263 21.6764V24.8276C204.135 24.8276 203.975 24.8276 203.783 24.8276C203.654 24.8276 203.526 24.8276 203.398 24.8276C197.637 24.8276 193.124 26.6419 189.86 30.2706C186.595 33.8992 184.963 38.8966 184.963 45.2626V71.618H181.794Z" fill="black"/>
<path d="M239.088 71.9045C234.799 71.9045 231.118 71.1406 228.046 69.6127C224.973 68.0212 222.605 65.6976 220.94 62.6419C219.276 59.5225 218.444 55.7029 218.444 51.183V22.0584H221.613V50.992C221.613 56.9125 223.149 61.4005 226.221 64.4562C229.294 67.5119 233.615 69.0398 239.184 69.0398C243.153 69.0398 246.577 68.2122 249.458 66.557C252.402 64.8382 254.643 62.4509 256.179 59.3952C257.715 56.3395 258.484 52.8064 258.484 48.7958V22.0584H261.652V71.618H258.58V57.7719L258.964 58.6313C257.555 62.7056 255.123 65.9523 251.666 68.3714C248.21 70.7268 244.017 71.9045 239.088 71.9045Z" fill="black"/>
<path d="M269.925 71.618L296.907 35.809V38.3873L271.75 4.77453H275.591L298.635 35.5225H297.387L320.431 4.77453H324.08L299.211 37.9098V36.191L326 71.618H322.159L297.291 38.5782H298.539L273.67 71.618H269.925Z" fill="black"/>
<path d="M10.9913 71.618H0L23.0097 49.7118C27.0968 45.8888 32.4504 43.7666 38.0071 43.7666C43.5639 43.7666 48.9175 45.8888 53.0046 49.7118L76.0143 71.618H65.023L47.5603 54.9276C44.9679 52.5114 41.5773 51.1709 38.0585 51.1709C34.5398 51.1709 31.1491 52.5114 28.5567 54.9276L10.9913 71.618Z" fill="black"/>
<path d="M65.023 5.65327e-06L76.0143 6.60888e-06L53.0046 21.9062C48.9175 25.7293 43.5639 27.8515 38.0071 27.8515C32.4504 27.8515 27.0968 25.7293 23.0097 21.9062L2.4483e-06 0L10.9913 9.55609e-07L28.454 16.6904C31.0464 19.1066 34.437 20.4472 37.9558 20.4472C41.4745 20.4472 44.8652 19.1066 47.4576 16.6905L65.023 5.65327e-06Z" fill="black"/>
<path d="M35.9651 37.9584C35.9651 35.3946 39.3407 30.0066 39.3407 30.0066C39.3407 30.0066 42.7164 35.3946 42.7164 37.9584C42.7164 39.7468 41.2048 41.6114 39.3407 41.6114C37.4767 41.6114 35.9651 39.7468 35.9651 37.9584Z" fill="black"/>
</svg>
