<svg width="75" height="72" viewBox="0 0 75 72" fill="none" xmlns="http://www.w3.org/2000/svg">
<path d="M34.1426 38.355C34.1426 36.0255 37.5317 31.13 37.5317 31.13C37.5317 31.13 40.9209 36.0255 40.9209 38.355C40.9209 39.9799 39.4033 41.674 37.5317 41.674C35.6602 41.674 34.1426 39.9799 34.1426 38.355Z" fill="white"/>
<path d="M63.5655 -4.75404e-06L74.3104 -3.8147e-06L51.8165 21.0881C47.821 24.7683 42.5874 26.8113 37.1552 26.8113C31.723 26.8113 26.4895 24.7683 22.494 21.0881L4.81203e-05 -1.03111e-05L10.7449 -9.37177e-06L27.8162 16.0671C30.3505 18.393 33.6652 19.6835 37.105 19.6835C40.5449 19.6835 43.8595 18.393 46.3938 16.0671L63.5655 -4.75404e-06Z" fill="white"/>
<path d="M10.7449 72H0L22.494 50.9119C26.4894 47.2317 31.723 45.1887 37.1552 45.1887C42.5874 45.1887 47.8209 47.2317 51.8164 50.9119L74.3104 72L63.5655 72L46.4942 55.9329C43.9599 53.607 40.6453 52.3165 37.2054 52.3165C33.7655 52.3165 30.4509 53.607 27.9166 55.9329L10.7449 72Z" fill="white"/>
</svg>
